<svg xmlns="http://www.w3.org/2000/svg" version="1.1" xmlns:xlink="http://www.w3.org/1999/xlink" xmlns:svgjs="http://svgjs.dev/svgjs" width="1500" height="1500" viewBox="0 0 1500 1500"><rect width="1500" height="1500" fill="#000000"></rect><g transform="matrix(0.6666666666666666,0,0,0.6666666666666666,250,250.000669642616)"><svg viewBox="0 0 280 280" data-background-color="#162836" preserveAspectRatio="xMidYMid meet" height="1500" width="1500" xmlns="http://www.w3.org/2000/svg" xmlns:xlink="http://www.w3.org/1999/xlink"><g id="tight-bounds" transform="matrix(1,0,0,1,0,-0.00018749993247979546)"><svg viewBox="0 0 280 280" height="280" width="280"><g><svg viewBox="0 0 280 280" height="280" width="280"><g><svg viewBox="0 0 280 280" height="280" width="280"><g id="textblocktransform"><svg viewBox="0 0 280 280" height="280" width="280" id="textblock"><g><svg viewBox="0 0 280 280" height="280" width="280"><g transform="matrix(1,0,0,1,82.71862258614826,74.00336708925556)"><svg viewBox="0 0 114.56275482770347 131.99326582148888" height="131.99326582148888" width="114.56275482770347"><g id="icon-0"><svg xmlns="http://www.w3.org/2000/svg" xmlns:xlink="http://www.w3.org/1999/xlink" version="1.1" x="0" y="0" viewBox="5 0.784 54 62.216" style="enable-background:new 0 0 64 64;" xml:space="preserve" height="131.99326582148888" width="114.56275482770347" class="icon-xg-0" data-fill-palette-color="accent" id="xg-0"><g fill="#d5a187" data-fill-palette-color="accent"><path d="M59 19.476L32 0.784l-13 9V7h-8v8.322l-6 4.154v8.433l3-2.077V55h6v8h36v-8h6V25.831l3 2.077V19.476zM13 9h4v2.168l-4 2.769V9zM48 61H16V33h10v-0.042c0.616 0.465 1.275 0.881 2 1.198V35H18v20h28V35H36v-0.844c0.725-0.316 1.384-0.733 2-1.198V33h10V61zM29.586 39l-2 2 2 2L28 44.586v2.828l4 4 4-4V37h8v16H20V37h8v0.414L29.586 39zM34.666 32.534L34 32.77v13.816l-2 2-2-2v-1.172L32.414 43l-2-2 2-2L30 36.586V32.77l-0.666-0.235C26.144 31.404 24 28.377 24 25c0-4.411 3.589-8 8-8s8 3.589 8 8C40 28.377 37.856 31.404 34.666 32.534zM54 53h-4V31H39.959C41.24 29.303 42 27.22 42 25c0-5.514-4.486-10-10-10s-10 4.486-10 10c0 2.22 0.76 4.303 2.041 6H14v22h-4V24.447L32 9.216l22 15.231V53zM57 24.092L32 6.784 7 24.092v-3.567L32 3.216l25 17.309V24.092z" fill="#ffffff" data-fill-palette-color="accent"></path><path d="M32 19c-2.206 0-4 1.794-4 4s1.794 4 4 4 4-1.794 4-4S34.206 19 32 19zM32 25c-1.103 0-2-0.897-2-2s0.897-2 2-2 2 0.897 2 2S33.103 25 32 25z" fill="#ffffff" data-fill-palette-color="accent"></path><rect x="18" y="57" width="24" height="2" fill="#ffffff" data-fill-palette-color="accent"></rect><rect x="44" y="57" width="2" height="2" fill="#ffffff" data-fill-palette-color="accent"></rect></g></svg></g></svg></g><g id="text-0"><path d="M34.877 86.226v0c-0.133-0.101-0.243-0.122-0.33-0.062-0.085 0.053-0.192 0.155-0.321 0.305v0l-0.603 0.756c-0.123 0.153-0.153 0.277-0.09 0.373 0.057 0.094 0.143 0.195 0.259 0.304v0c0.5 0.486 0.831 0.946 0.993 1.381 0.16 0.441 0.178 0.82 0.055 1.139v0c-0.245 0.636-0.601 1.003-1.069 1.102-0.476 0.103-1.037 0.052-1.68-0.153-0.64-0.196-1.339-0.444-2.098-0.744-0.752-0.297-1.539-0.539-2.362-0.727-0.831-0.184-1.658-0.213-2.48-0.085-0.826 0.119-1.628 0.518-2.405 1.2v0c-0.337 0.3-0.564 0.424-0.68 0.371-0.112-0.043-0.159-0.247-0.14-0.612v0c0.127-1.834-0.192-3.274-0.957-4.32-0.764-1.046-1.851-1.84-3.259-2.383v0c-1.266-0.487-2.531-0.649-3.797-0.485-1.26 0.166-2.445 0.762-3.556 1.787-1.102 1.022-2.054 2.574-2.856 4.656v0l-5.054 13.12c-0.084 0.218-0.096 0.371-0.036 0.459 0.062 0.081 0.205 0.165 0.429 0.251v0l0.542 0.209c0.305 0.118 0.522 0.169 0.65 0.153 0.124-0.024 0.242-0.182 0.355-0.475v0l0.897-2.328c0.142-0.368 0.278-0.584 0.41-0.648 0.13-0.058 0.378-0.015 0.746 0.126v0l20.48 7.888c0.343 0.132 0.534 0.259 0.573 0.382 0.036 0.129-0.014 0.371-0.151 0.725v0l-0.904 2.348c-0.091 0.237-0.119 0.412-0.085 0.526 0.035 0.114 0.186 0.222 0.455 0.325v0l0.739 0.284c0.218 0.084 0.378 0.106 0.479 0.067 0.101-0.04 0.194-0.169 0.278-0.387v0l3.756-9.754c0.089-0.231 0.12-0.394 0.093-0.49-0.027-0.096-0.15-0.187-0.369-0.271v0l-0.776-0.299c-0.256-0.098-0.436-0.132-0.541-0.101-0.103 0.025-0.2 0.156-0.291 0.393v0l-0.99 2.571c-0.106 0.274-0.208 0.446-0.306 0.516-0.098 0.07-0.278 0.054-0.54-0.047v0l-8.51-3.277c-0.38-0.146-0.612-0.279-0.696-0.397-0.077-0.116-0.043-0.364 0.104-0.744v0l1.686-4.376c0.487-1.266 1.079-2.14 1.773-2.625 0.695-0.484 1.456-0.714 2.284-0.688 0.83 0.019 1.688 0.171 2.574 0.454 0.886 0.284 1.769 0.574 2.65 0.871 0.879 0.303 1.722 0.491 2.531 0.566 0.811 0.069 1.548-0.098 2.212-0.501 0.664-0.403 1.216-1.178 1.658-2.325v0c0.545-1.415 0.624-2.641 0.235-3.679-0.382-1.035-1.036-1.91-1.963-2.625zM19.386 94.607l-2.207 5.732c-0.142 0.368-0.279 0.576-0.413 0.625-0.127 0.051-0.371 0.007-0.733-0.132v0l-8.351-3.216c-0.399-0.154-0.62-0.278-0.662-0.373-0.046-0.104 0.008-0.355 0.162-0.754v0l2.208-5.732c0.336-0.873 0.837-1.635 1.504-2.288 0.658-0.649 1.451-1.081 2.378-1.296 0.934-0.213 1.971-0.1 3.112 0.339v0c1.135 0.437 1.974 1.047 2.518 1.829 0.544 0.782 0.845 1.635 0.904 2.56 0.057 0.931-0.083 1.833-0.42 2.706z" fill="#ffffff" data-fill-palette-color="primary"></path><path d="M41.804 65.829v0c1.297 1.135 2.709 1.936 4.237 2.403 1.532 0.461 3.049 0.502 4.553 0.123 1.508-0.384 2.874-1.276 4.097-2.673v0c1.03-1.176 1.701-2.355 2.016-3.536 0.314-1.181 0.339-2.345 0.073-3.492-0.266-1.147-0.757-2.265-1.473-3.353v0c-0.079-0.113-0.156-0.172-0.232-0.177-0.076-0.004-0.176 0.064-0.299 0.205v0l-0.706 0.807c-0.119 0.136-0.166 0.25-0.141 0.343 0.03 0.088 0.079 0.194 0.149 0.317v0c0.69 1.261 1.028 2.528 1.013 3.803-0.015 1.265-0.507 2.451-1.474 3.556v0c-0.832 0.95-1.771 1.486-2.819 1.608-1.048 0.122-2.13-0.067-3.248-0.565-1.113-0.504-2.177-1.2-3.193-2.088v0c-0.156-0.136-0.229-0.271-0.218-0.405 0.011-0.124 0.082-0.261 0.214-0.411v0l7.814-8.929c0.172-0.196 0.268-0.347 0.289-0.453 0.017-0.101-0.068-0.232-0.253-0.395v0c-0.659-0.576-1.377-1.094-2.156-1.553-0.788-0.459-1.612-0.811-2.471-1.057-0.854-0.241-1.724-0.337-2.611-0.288-0.887 0.05-1.761 0.292-2.622 0.728-0.862 0.427-1.691 1.095-2.487 2.005v0c-1.307 1.493-2.049 3.032-2.228 4.615-0.184 1.579 0.095 3.128 0.835 4.646 0.745 1.513 1.858 2.918 3.341 4.216zM48.639 54.992l-5.491 6.274c-0.145 0.166-0.262 0.254-0.352 0.265-0.085 0.006-0.198-0.053-0.338-0.177v0c-0.734-0.642-1.337-1.419-1.81-2.329-0.482-0.91-0.718-1.858-0.707-2.844 0.015-0.99 0.394-1.911 1.137-2.76v0c0.493-0.563 1.081-0.905 1.764-1.026 0.678-0.126 1.39-0.102 2.135 0.071 0.736 0.174 1.438 0.437 2.105 0.79 0.662 0.349 1.227 0.728 1.695 1.137v0c0.09 0.079 0.131 0.15 0.12 0.212-0.009 0.072-0.096 0.2-0.258 0.387z" fill="#ffffff" data-fill-palette-color="primary"></path><path d="M69.221 30.587l2.197-1.184c0.129-0.07 0.234-0.107 0.315-0.112 0.084 0 0.157 0.059 0.221 0.177v0l6.786 12.598c0.111 0.206 0.141 0.353 0.09 0.441-0.051 0.088-0.185 0.191-0.403 0.309v0l-1.783 0.96c-0.206 0.111-0.34 0.221-0.402 0.33-0.059 0.115-0.029 0.285 0.092 0.509v0l0.404 0.749c0.111 0.206 0.215 0.328 0.311 0.368 0.091 0.042 0.233 0.011 0.428-0.094v0l7.87-4.239c0.182-0.098 0.285-0.196 0.309-0.292 0.024-0.096-0.016-0.242-0.121-0.436v0l-0.404-0.75c-0.13-0.241-0.253-0.372-0.37-0.392-0.117-0.02-0.282 0.027-0.494 0.141v0l-1.676 0.903c-0.247 0.133-0.449 0.181-0.606 0.143-0.154-0.046-0.297-0.193-0.43-0.439v0l-3.635-6.75c-0.599-1.112-0.943-2.25-1.033-3.416-0.08-1.163 0.119-2.238 0.597-3.224 0.472-0.983 1.241-1.761 2.305-2.334v0c1.07-0.577 2.027-0.674 2.87-0.294 0.843 0.381 1.587 1.171 2.233 2.371v0l4.966 9.22c0.149 0.276 0.198 0.474 0.149 0.591-0.044 0.115-0.199 0.244-0.464 0.387v0l-1.87 1.007c-0.171 0.092-0.262 0.183-0.275 0.273-0.018 0.093 0.024 0.234 0.125 0.422v0l0.438 0.812c0.092 0.171 0.178 0.288 0.257 0.351 0.074 0.067 0.199 0.052 0.375-0.043v0l7.914-4.263c0.182-0.098 0.302-0.186 0.36-0.262 0.061-0.071 0.043-0.194-0.052-0.371v0l-0.504-0.935c-0.101-0.188-0.195-0.305-0.279-0.35-0.085-0.045-0.222-0.017-0.41 0.084v0l-1.915 1.032c-0.282 0.152-0.477 0.192-0.583 0.12-0.11-0.077-0.241-0.257-0.393-0.539v0l-5.1-9.467c-0.627-1.165-1.301-2.05-2.022-2.655-0.724-0.612-1.57-0.907-2.538-0.887-0.977 0.018-2.154 0.397-3.53 1.139v0c-1.412 0.76-2.41 1.682-2.996 2.763-0.595 1.079-0.92 2.195-0.974 3.348v0c-0.014 0.228-0.038 0.373-0.072 0.437-0.037 0.058-0.17-0.125-0.398-0.548v0l-1.021-1.897c-0.082-0.153-0.192-0.265-0.329-0.335-0.14-0.076-0.304-0.064-0.492 0.037v0l-5.038 2.714c-0.118 0.063-0.181 0.136-0.19 0.216-0.015 0.084 0.013 0.194 0.086 0.329v0l0.542 1.006c0.076 0.141 0.155 0.231 0.237 0.271 0.076 0.043 0.185 0.026 0.325-0.05z" fill="#ffffff" data-fill-palette-color="primary"></path><path d="M127.784 23.897v0c0.033-0.168 0.019-0.277-0.044-0.328-0.064-0.057-0.172-0.097-0.324-0.119v0l-0.616-0.103c-0.21-0.04-0.345-0.038-0.405 0.006-0.059 0.05-0.118 0.172-0.174 0.363v0c-0.203 0.744-0.482 1.338-0.836 1.782-0.362 0.438-0.803 0.7-1.324 0.785v0c-0.488 0.08-0.904-0.022-1.247-0.304-0.344-0.282-0.575-0.786-0.694-1.511v0l-2.033-12.442c-0.046-0.284-0.015-0.465 0.094-0.543 0.116-0.08 0.299-0.14 0.549-0.181v0l4.015-0.657c0.218-0.036 0.369-0.084 0.454-0.145 0.079-0.054 0.101-0.189 0.065-0.407v0l-0.155-0.949c-0.042-0.257-0.109-0.415-0.2-0.475-0.091-0.06-0.255-0.07-0.492-0.031v0l-4.045 0.661c-0.231 0.038-0.414 0.037-0.549-0.002-0.128-0.04-0.214-0.188-0.255-0.446v0l-0.655-4.005c-0.058-0.356-0.246-0.508-0.562-0.457v0l-0.989 0.162c-0.264 0.043-0.419 0.106-0.467 0.188-0.046 0.089-0.079 0.24-0.098 0.453v0c-0.072 1.095-0.159 1.969-0.262 2.622-0.103 0.653-0.266 1.147-0.489 1.481-0.216 0.333-0.525 0.577-0.927 0.73-0.401 0.154-0.928 0.284-1.581 0.391v0c-0.231 0.038-0.375 0.085-0.434 0.141-0.059 0.05-0.07 0.191-0.032 0.422v0l0.161 0.989c0.039 0.237 0.106 0.382 0.203 0.434 0.089 0.046 0.262 0.049 0.519 0.007v0l2.166-0.354c0.218-0.036 0.377-0.011 0.479 0.074 0.101 0.078 0.169 0.226 0.205 0.443v0l2.156 13.194c0.163 0.996 0.587 1.793 1.274 2.391 0.68 0.6 1.676 0.792 2.988 0.578v0c0.949-0.155 1.738-0.467 2.366-0.935 0.628-0.468 1.119-1.046 1.473-1.734 0.356-0.681 0.596-1.404 0.722-2.169z" fill="#ffffff" data-fill-palette-color="primary"></path><path d="M154.403 2.026l2.461 0.414c0.376 0.063 0.613 0.14 0.713 0.231 0.094 0.084 0.11 0.313 0.047 0.689v0l-3.616 21.514c-0.075 0.448-0.172 0.723-0.291 0.825-0.124 0.094-0.41 0.104-0.859 0.028v0l-2.372-0.398c-0.237-0.04-0.41-0.042-0.517-0.006-0.107 0.029-0.18 0.166-0.221 0.41v0l-0.141 0.84c-0.049 0.29-0.023 0.48 0.076 0.572 0.093 0.09 0.275 0.158 0.545 0.203v0l22.532 3.788c0.244 0.041 0.409 0.028 0.495-0.039 0.086-0.067 0.15-0.229 0.193-0.486v0l1.364-8.114c0.041-0.244 0.01-0.405-0.092-0.482-0.109-0.079-0.278-0.138-0.509-0.177v0l-0.691-0.117c-0.158-0.027-0.276-0.009-0.355 0.053-0.078 0.061-0.137 0.211-0.177 0.447v0c-0.321 1.748-0.744 3.076-1.269 3.984-0.525 0.908-1.265 1.481-2.22 1.72-0.948 0.24-2.223 0.226-3.823-0.043v0l-7.58-1.274c-0.349-0.059-0.562-0.142-0.639-0.25-0.076-0.114-0.085-0.343-0.027-0.685v0l1.646-9.794c0.054-0.323 0.126-0.531 0.217-0.624 0.097-0.092 0.3-0.112 0.609-0.06v0l2.412 0.405c0.968 0.163 1.731 0.46 2.289 0.893 0.557 0.432 0.947 0.955 1.169 1.569 0.221 0.62 0.301 1.294 0.239 2.021v0c-0.02 0.281 0.01 0.462 0.092 0.544 0.088 0.082 0.188 0.133 0.299 0.152v0l0.603 0.101c0.264 0.044 0.433 0.025 0.508-0.057 0.076-0.089 0.138-0.278 0.186-0.568v0l1.471-8.746c0.034-0.204 0.019-0.353-0.048-0.445-0.072-0.093-0.214-0.158-0.424-0.193v0l-0.593-0.1c-0.184-0.031-0.312-0.015-0.384 0.048-0.071 0.063-0.141 0.213-0.208 0.452v0c-0.265 1.053-0.793 1.858-1.585 2.417-0.79 0.551-1.914 0.705-3.37 0.46v0l-2.481-0.417c-0.29-0.049-0.453-0.144-0.49-0.286-0.043-0.149-0.042-0.356 0.002-0.619v0l1.487-8.845c0.06-0.356 0.15-0.571 0.271-0.646 0.121-0.075 0.343-0.085 0.666-0.03v0l7.945 1.336c1.357 0.228 2.394 0.589 3.111 1.081 0.718 0.486 1.176 1.187 1.374 2.101 0.205 0.915 0.2 2.117-0.016 3.605v0c-0.026 0.233-0.021 0.41 0.012 0.53 0.039 0.129 0.191 0.215 0.455 0.259v0l0.731 0.123c0.316 0.053 0.489 0.031 0.519-0.065 0.023-0.098 0.059-0.292 0.108-0.581v0l1.169-6.958c0.071-0.422 0.057-0.681-0.042-0.779-0.105-0.099-0.369-0.184-0.79-0.255v0l-21.88-3.677c-0.27-0.045-0.449-0.028-0.537 0.052-0.087 0.073-0.154 0.252-0.202 0.535v0l-0.091 0.543c-0.047 0.277-0.047 0.48-0.001 0.61 0.047 0.123 0.222 0.21 0.525 0.261z" fill="#ffffff" data-fill-palette-color="primary"></path><path d="M197.026 36.244v0c-0.806 1.324-0.968 2.637-0.486 3.939 0.482 1.302 1.422 2.379 2.821 3.23v0c1.119 0.681 2.088 1.079 2.909 1.196 0.821 0.116 1.507 0.1 2.059-0.049 0.556-0.155 0.987-0.299 1.295-0.432v0c0.27-0.109 0.433-0.147 0.491-0.112 0.057 0.035 0.044 0.16-0.041 0.375v0c-0.113 0.275-0.211 0.63-0.295 1.063-0.088 0.439-0.021 0.914 0.201 1.424 0.216 0.507 0.717 1 1.504 1.479v0l0.018 0.011c0.428 0.261 0.89 0.44 1.385 0.538 0.495 0.098 1.012 0.104 1.55 0.017 0.541-0.093 1.073-0.297 1.594-0.614v0c0.175-0.12 0.22-0.265 0.135-0.434v0l-0.357-0.686c-0.071-0.192-0.216-0.229-0.436-0.113v0c-0.534 0.261-0.965 0.378-1.293 0.351-0.328-0.027-0.603-0.109-0.825-0.244v0c-0.217-0.132-0.363-0.323-0.438-0.572-0.079-0.243-0.021-0.525 0.174-0.844v0l5.778-9.494c0.518-0.85 0.873-1.737 1.067-2.659 0.197-0.928 0.06-1.86-0.411-2.795-0.476-0.939-1.451-1.857-2.923-2.753v0c-0.799-0.486-1.654-0.874-2.565-1.162-0.915-0.283-1.809-0.44-2.682-0.471-0.873-0.031-1.669 0.102-2.39 0.399-0.72 0.297-1.289 0.788-1.705 1.473v0c-0.424 0.696-0.527 1.29-0.311 1.782 0.217 0.492 0.568 0.885 1.053 1.18v0c0.536 0.326 1.063 0.412 1.58 0.257 0.522-0.151 0.947-0.495 1.273-1.031v0c0.25-0.411 0.348-0.739 0.293-0.983-0.051-0.25-0.123-0.466-0.216-0.648-0.091-0.172-0.079-0.353 0.036-0.541v0c0.129-0.211 0.413-0.312 0.853-0.302 0.443 0.004 0.957 0.105 1.54 0.303 0.583 0.198 1.16 0.471 1.73 0.819v0c0.839 0.511 1.384 1.061 1.635 1.652 0.256 0.594 0.294 1.219 0.113 1.875-0.171 0.654-0.472 1.335-0.903 2.043v0l-1.057 1.738c-0.115 0.188-0.207 0.289-0.277 0.301-0.076 0.009-0.202-0.041-0.379-0.149v0l-1.55-0.943c-1.803-1.098-3.468-1.755-4.993-1.971-1.522-0.223-2.844-0.1-3.966 0.366-1.125 0.473-1.987 1.203-2.588 2.191zM200.531 37.732v0c0.493-0.81 1.074-1.411 1.742-1.802 0.67-0.382 1.462-0.506 2.374-0.374 0.916 0.127 1.981 0.561 3.197 1.301v0l1.644 1c0.211 0.129 0.252 0.298 0.124 0.51v0l-1.152 1.892c-0.872 1.432-1.922 2.33-3.152 2.692-1.229 0.362-2.381 0.217-3.453-0.436v0c-0.788-0.479-1.365-1.136-1.734-1.971-0.366-0.825-0.229-1.762 0.41-2.812z" fill="#ffffff" data-fill-palette-color="primary"></path><path d="M244.479 64.971v0c-0.105 0.166-0.175 0.295-0.211 0.387-0.041 0.087 0.023 0.23 0.19 0.429v0l0.664 0.791c0.133 0.159 0.246 0.247 0.339 0.264 0.088 0.022 0.209-0.032 0.363-0.161v0l4.336-3.64c0.266-0.223 0.298-0.455 0.096-0.696v0l-0.535-0.637c-0.15-0.179-0.27-0.28-0.358-0.302-0.083-0.026-0.213-0.009-0.388 0.052v0l-1.422 0.566c-0.316 0.143-0.471 0.182-0.466 0.116 0.015-0.065 0.032-0.237 0.052-0.515v0c0.075-0.7-0.004-1.506-0.237-2.418-0.233-0.921-0.736-1.842-1.509-2.763v0c-0.674-0.803-1.455-1.4-2.34-1.79-0.877-0.389-1.792-0.524-2.746-0.403-0.945 0.122-1.862 0.556-2.753 1.304v0c-0.987 0.829-1.595 1.701-1.821 2.615-0.227 0.914-0.222 1.839 0.014 2.775 0.232 0.931 0.567 1.849 1.005 2.755 0.428 0.905 0.82 1.776 1.173 2.613 0.359 0.833 0.54 1.61 0.544 2.331 0.009 0.717-0.312 1.348-0.962 1.893v0c-0.716 0.601-1.51 0.814-2.381 0.639-0.871-0.176-1.724-0.76-2.558-1.752v0c-0.657-0.783-1.104-1.564-1.339-2.343-0.236-0.779-0.27-1.579-0.104-2.399 0.166-0.811 0.529-1.661 1.09-2.551v0c0.082-0.13 0.138-0.251 0.167-0.363 0.019-0.112-0.038-0.247-0.171-0.406v0l-0.722-0.859c-0.137-0.164-0.258-0.245-0.362-0.245-0.104 0-0.241 0.071-0.41 0.213v0l-4.352 3.654c-0.143 0.12-0.224 0.227-0.241 0.32-0.013 0.098 0.038 0.217 0.154 0.355v0l0.548 0.652c0.125 0.148 0.252 0.238 0.382 0.268 0.13 0.03 0.261 0.02 0.394-0.029v0l1.297-0.527c0.241-0.098 0.395-0.101 0.464-0.01 0.068 0.091 0.098 0.267 0.089 0.527v0c-0.008 0.749 0.133 1.607 0.423 2.576 0.29 0.969 0.82 1.911 1.588 2.827v0c0.765 0.911 1.649 1.595 2.652 2.052 0.999 0.452 2.033 0.613 3.102 0.484 1.073-0.125 2.101-0.599 3.083-1.424v0c0.931-0.782 1.493-1.62 1.684-2.513 0.192-0.894 0.158-1.807-0.102-2.741-0.256-0.928-0.604-1.857-1.045-2.786-0.431-0.929-0.825-1.824-1.181-2.685-0.347-0.86-0.519-1.658-0.517-2.393 0.008-0.739 0.341-1.386 1.001-1.94v0c0.593-0.498 1.244-0.695 1.951-0.591 0.707 0.104 1.374 0.53 2.001 1.277v0c0.799 0.952 1.254 2.075 1.364 3.37 0.109 1.304-0.216 2.563-0.977 3.777z" fill="#ffffff" data-fill-palette-color="primary"></path><path d="M255.647 92.189v0c-1.609 0.617-2.977 1.492-4.102 2.625-1.123 1.139-1.867 2.462-2.234 3.97-0.364 1.513-0.213 3.137 0.452 4.871v0c0.56 1.46 1.289 2.604 2.186 3.433 0.898 0.829 1.916 1.394 3.055 1.694 1.138 0.3 2.356 0.388 3.653 0.262v0c0.137-0.017 0.225-0.058 0.264-0.122 0.039-0.065 0.026-0.185-0.041-0.36v0l-0.384-1.001c-0.065-0.168-0.144-0.263-0.238-0.285-0.092-0.015-0.208-0.02-0.35-0.016v0c-1.437 0.022-2.716-0.271-3.836-0.879-1.112-0.604-1.931-1.592-2.457-2.964v0c-0.452-1.179-0.488-2.26-0.107-3.244 0.381-0.983 1.053-1.853 2.015-2.608 0.965-0.749 2.077-1.366 3.337-1.849v0c0.193-0.074 0.347-0.076 0.46-0.005 0.105 0.067 0.193 0.194 0.265 0.382v0l4.249 11.078c0.093 0.243 0.182 0.399 0.265 0.467 0.081 0.062 0.237 0.049 0.468-0.04v0c0.817-0.313 1.611-0.707 2.38-1.182 0.774-0.483 1.47-1.047 2.088-1.691 0.612-0.643 1.103-1.368 1.474-2.175 0.37-0.807 0.563-1.694 0.579-2.659 0.025-0.961-0.179-2.006-0.613-3.135v0c-0.711-1.853-1.725-3.227-3.042-4.125-1.311-0.9-2.811-1.376-4.498-1.43-1.685-0.048-3.448 0.282-5.288 0.988zM262.042 103.291l-2.986-7.784c-0.079-0.206-0.102-0.351-0.07-0.435 0.035-0.078 0.139-0.15 0.313-0.217v0c0.911-0.349 1.879-0.52 2.905-0.513 1.03-0.002 1.978 0.232 2.845 0.701 0.869 0.475 1.506 1.24 1.911 2.294v0c0.268 0.699 0.296 1.378 0.084 2.039-0.205 0.658-0.558 1.277-1.059 1.855-0.497 0.57-1.057 1.067-1.681 1.493-0.618 0.423-1.217 0.746-1.797 0.969v0c-0.112 0.043-0.194 0.046-0.244 0.007-0.059-0.042-0.133-0.178-0.221-0.409z" fill="#ffffff" data-fill-palette-color="primary"></path><path d="M3.936 144.26c0-5.841 4.735-10.577 10.577-10.577 5.841 0 10.577 4.735 10.577 10.577 0 5.841-4.735 10.577-10.577 10.577-5.841 0-10.577-4.735-10.577-10.577z" fill="#ffffff" data-fill-palette-color="primary"></path><path d="M256.473 144.26c0-5.841 4.735-10.577 10.576-10.577 5.841 0 10.577 4.735 10.577 10.577 0 5.841-4.735 10.577-10.577 10.577-5.841 0-10.577-4.735-10.576-10.577z" fill="#ffffff" data-fill-palette-color="primary"></path></g><g id="text-1"><path d="M23.397 206.288v0c0.169-0.008 0.266-0.063 0.291-0.165 0.025-0.103 0.033-0.249 0.025-0.439v0l-0.055-0.956c-0.008-0.19-0.065-0.301-0.171-0.331-0.111-0.029-0.246-0.045-0.405-0.049v0c-0.682-0.025-1.229-0.144-1.64-0.359-0.405-0.217-0.669-0.484-0.79-0.802v0c-0.239-0.624-0.218-1.129 0.062-1.516 0.281-0.387 0.723-0.717 1.327-0.991 0.601-0.28 1.277-0.561 2.027-0.842 0.751-0.281 1.492-0.626 2.222-1.035 0.724-0.407 1.347-0.928 1.869-1.564 0.528-0.639 0.852-1.464 0.971-2.476v0c0.05-0.448 0.132-0.691 0.247-0.728 0.115-0.037 0.283 0.085 0.505 0.364v0c1.121 1.43 2.308 2.278 3.561 2.541 1.251 0.257 2.575 0.118 3.972-0.417v0c1.241-0.476 2.272-1.193 3.092-2.152 0.814-0.956 1.287-2.175 1.42-3.657 0.139-1.484-0.185-3.253-0.971-5.305v0l-4.97-12.959c-0.081-0.212-0.172-0.328-0.272-0.346-0.103-0.025-0.266 0.005-0.491 0.091v0l-0.533 0.205c-0.306 0.117-0.498 0.223-0.576 0.317-0.076 0.101-0.058 0.298 0.055 0.591v0l0.879 2.292c0.139 0.362 0.18 0.611 0.125 0.746-0.051 0.127-0.261 0.261-0.629 0.403v0l-20.22 7.754c-0.337 0.129-0.561 0.161-0.672 0.096-0.113-0.071-0.237-0.281-0.37-0.631v0l-0.886-2.311c-0.091-0.237-0.187-0.386-0.29-0.447-0.102-0.061-0.284-0.041-0.546 0.059v0l-0.73 0.28c-0.212 0.081-0.342 0.171-0.391 0.268-0.049 0.097-0.031 0.255 0.053 0.474v0l3.692 9.628c0.086 0.225 0.172 0.364 0.256 0.417 0.085 0.053 0.236 0.038 0.455-0.046v0l0.767-0.294c0.25-0.096 0.4-0.189 0.451-0.28 0.06-0.087 0.044-0.249-0.047-0.487v0l-0.972-2.535c-0.103-0.268-0.141-0.461-0.115-0.579 0.029-0.111 0.174-0.217 0.437-0.318v0l8.402-3.222c0.374-0.144 0.628-0.201 0.76-0.173 0.135 0.034 0.274 0.238 0.417 0.613v0l1.658 4.322c0.478 1.248 0.624 2.279 0.436 3.096-0.19 0.81-0.595 1.48-1.215 2.011-0.626 0.533-1.356 0.989-2.191 1.367-0.835 0.378-1.673 0.749-2.514 1.114-0.849 0.361-1.592 0.782-2.23 1.263-0.638 0.481-1.067 1.089-1.287 1.824-0.221 0.729-0.114 1.661 0.321 2.796v0c0.536 1.397 1.286 2.347 2.252 2.85 0.968 0.509 2.025 0.719 3.172 0.63zM29.213 189.912l-2.171-5.661c-0.139-0.362-0.175-0.605-0.109-0.731 0.062-0.117 0.271-0.244 0.627-0.38v0l8.244-3.161c0.399-0.153 0.646-0.208 0.741-0.166 0.093 0.036 0.215 0.254 0.368 0.653v0l2.171 5.661c0.333 0.867 0.469 1.756 0.411 2.665-0.05 0.914-0.346 1.757-0.887 2.529-0.547 0.775-1.379 1.377-2.496 1.805v0c-1.123 0.431-2.144 0.539-3.062 0.327-0.913-0.215-1.696-0.645-2.351-1.288-0.658-0.635-1.154-1.386-1.486-2.253z" fill="#ffffff" data-fill-palette-color="secondary"></path><path d="M41.218 223.133v0c-1.283 1.12-2.253 2.397-2.909 3.83-0.656 1.433-0.895 2.91-0.719 4.433 0.176 1.522 0.869 2.975 2.077 4.359v0c1.015 1.162 2.078 1.973 3.187 2.432 1.114 0.464 2.248 0.645 3.401 0.543 1.158-0.106 2.317-0.44 3.477-1v0c0.123-0.063 0.191-0.131 0.206-0.207 0.01-0.08-0.044-0.188-0.163-0.323v0l-0.692-0.793c-0.119-0.136-0.226-0.198-0.321-0.185-0.091 0.018-0.202 0.053-0.334 0.105v0c-1.327 0.511-2.609 0.673-3.847 0.486-1.238-0.179-2.334-0.814-3.287-1.906v0c-0.822-0.941-1.224-1.929-1.206-2.965 0.019-1.045 0.349-2.079 0.992-3.101 0.633-1.022 1.452-1.973 2.458-2.852v0c0.156-0.136 0.295-0.191 0.416-0.163 0.126 0.032 0.252 0.121 0.38 0.267v0l7.705 8.824c0.167 0.191 0.299 0.302 0.396 0.332 0.102 0.035 0.246-0.028 0.432-0.191v0c0.649-0.567 1.248-1.201 1.798-1.902 0.55-0.711 1.001-1.469 1.354-2.273 0.348-0.81 0.559-1.65 0.633-2.521 0.069-0.876-0.053-1.763-0.367-2.66-0.308-0.902-0.853-1.8-1.636-2.696v0c-1.287-1.474-2.692-2.403-4.214-2.785-1.522-0.392-3.072-0.324-4.652 0.203-1.579 0.528-3.101 1.431-4.565 2.709zM50.916 231.254l-5.418-6.204c-0.145-0.166-0.215-0.292-0.209-0.377 0.006-0.085 0.079-0.189 0.22-0.312v0c0.72-0.628 1.558-1.116 2.514-1.463 0.952-0.352 1.908-0.456 2.869-0.31 0.966 0.141 1.816 0.632 2.55 1.472v0c0.488 0.559 0.746 1.18 0.775 1.864 0.034 0.679-0.081 1.37-0.346 2.072-0.275 0.701-0.627 1.354-1.056 1.96-0.434 0.6-0.879 1.1-1.337 1.5v0c-0.091 0.079-0.166 0.109-0.227 0.091-0.065-0.014-0.177-0.111-0.335-0.293z" fill="#ffffff" data-fill-palette-color="secondary"></path><path d="M76.37 244.707l2.161 1.166c0.129 0.07 0.217 0.14 0.262 0.21 0.049 0.064 0.041 0.155-0.022 0.273v0l-6.707 12.425c-0.111 0.206-0.218 0.312-0.319 0.317-0.102 0.006-0.259-0.048-0.471-0.162v0l-1.763-0.952c-0.206-0.111-0.369-0.161-0.489-0.15-0.126 0.008-0.249 0.124-0.369 0.347v0l-0.4 0.741c-0.108 0.2-0.151 0.351-0.131 0.453 0.015 0.099 0.116 0.199 0.304 0.301v0l7.76 4.189c0.182 0.098 0.32 0.131 0.414 0.098 0.094-0.033 0.193-0.146 0.298-0.34v0l0.395-0.732c0.127-0.235 0.167-0.407 0.119-0.517-0.042-0.106-0.171-0.218-0.388-0.335v0l-1.649-0.89c-0.247-0.133-0.395-0.274-0.444-0.422-0.046-0.154-0.004-0.351 0.126-0.592v0l3.594-6.658c0.593-1.099 1.348-1.998 2.264-2.695 0.919-0.704 1.91-1.125 2.972-1.266 1.072-0.143 2.131 0.068 3.177 0.633v0c1.058 0.571 1.658 1.309 1.8 2.214 0.145 0.898-0.101 1.938-0.739 3.12v0l-4.908 9.091c-0.149 0.276-0.287 0.426-0.413 0.449-0.12 0.026-0.31-0.031-0.569-0.17v0l-1.843-0.995c-0.17-0.092-0.297-0.118-0.378-0.079-0.082 0.039-0.172 0.15-0.271 0.332v0l-0.433 0.802c-0.092 0.17-0.144 0.302-0.156 0.395-0.009 0.101 0.072 0.198 0.242 0.29v0l7.804 4.213c0.182 0.098 0.32 0.153 0.412 0.165 0.09 0.003 0.18-0.081 0.273-0.252v0l0.499-0.925c0.098-0.182 0.143-0.321 0.135-0.418-0.009-0.096-0.105-0.193-0.287-0.291v0l-1.887-1.019c-0.282-0.152-0.423-0.293-0.422-0.421 0.001-0.129 0.078-0.334 0.23-0.616v0l5.046-9.348c0.616-1.14 0.98-2.174 1.093-3.099 0.113-0.926-0.104-1.783-0.65-2.572-0.543-0.794-1.494-1.558-2.852-2.291v0c-1.387-0.749-2.688-1.075-3.902-0.979-1.214 0.096-2.308 0.436-3.282 1.018v0c-0.198 0.113-0.331 0.17-0.4 0.171-0.072 0.007 0.005-0.199 0.23-0.616v0l1.014-1.878c0.079-0.147 0.111-0.297 0.095-0.45-0.016-0.153-0.115-0.279-0.298-0.377v0l-4.965-2.68c-0.118-0.063-0.213-0.077-0.285-0.04-0.079 0.033-0.151 0.112-0.218 0.235v0l-0.538 0.997c-0.076 0.141-0.108 0.257-0.096 0.346 0.009 0.081 0.085 0.16 0.225 0.236z" fill="#ffffff" data-fill-palette-color="secondary"></path><path d="M125.729 276.378v0c0.092-0.147 0.113-0.256 0.063-0.325-0.043-0.068-0.133-0.14-0.269-0.216v0l-0.541-0.292c-0.18-0.097-0.306-0.135-0.378-0.113-0.071 0.022-0.165 0.119-0.281 0.29v0c-0.421 0.628-0.869 1.093-1.345 1.394-0.468 0.296-0.959 0.401-1.474 0.317v0c-0.481-0.079-0.841-0.303-1.077-0.674-0.231-0.369-0.287-0.914-0.17-1.632v0l2.011-12.283c0.044-0.27 0.131-0.425 0.259-0.465 0.129-0.046 0.319-0.049 0.57-0.008v0l3.956 0.647c0.218 0.036 0.372 0.041 0.465 0.015 0.099-0.024 0.166-0.145 0.201-0.363v0l0.152-0.929c0.042-0.257 0.03-0.428-0.037-0.514-0.068-0.079-0.221-0.138-0.459-0.177v0l-3.995-0.654c-0.224-0.037-0.39-0.098-0.498-0.183-0.109-0.079-0.143-0.243-0.102-0.494v0l0.648-3.956c0.056-0.343-0.074-0.54-0.391-0.592v0l-0.969-0.158c-0.264-0.043-0.431-0.037-0.501 0.019-0.071 0.063-0.147 0.193-0.226 0.39v0c-0.414 1.002-0.774 1.792-1.079 2.372-0.298 0.581-0.602 0.991-0.912 1.232-0.311 0.247-0.678 0.38-1.101 0.398-0.423 0.019-0.957-0.025-1.604-0.13v0c-0.231-0.038-0.382-0.042-0.455-0.014-0.072 0.029-0.128 0.159-0.165 0.389v0l-0.159 0.969c-0.039 0.237-0.02 0.393 0.056 0.467 0.076 0.073 0.239 0.131 0.49 0.171v0l2.136 0.35c0.218 0.036 0.361 0.11 0.431 0.223 0.063 0.112 0.077 0.273 0.042 0.484v0l-2.13 13.014c-0.161 0.982-0.014 1.863 0.44 2.642 0.448 0.777 1.322 1.272 2.621 1.485v0c0.93 0.152 1.763 0.106 2.5-0.139 0.737-0.245 1.379-0.631 1.926-1.157 0.545-0.52 0.996-1.12 1.351-1.8z" fill="#ffffff" data-fill-palette-color="secondary"></path><path d="M149.283 255.01l2.421-0.408c0.376-0.063 0.622-0.071 0.738-0.022 0.117 0.048 0.206 0.26 0.269 0.635v0l3.575 21.227c0.075 0.448 0.073 0.736-0.007 0.865-0.087 0.13-0.351 0.232-0.792 0.306v0l-2.332 0.392c-0.244 0.041-0.408 0.092-0.492 0.154-0.09 0.069-0.115 0.223-0.075 0.46v0l0.14 0.83c0.048 0.283 0.134 0.452 0.258 0.506 0.118 0.055 0.308 0.06 0.571 0.015v0l22.235-3.744c0.244-0.041 0.395-0.107 0.454-0.199 0.059-0.091 0.068-0.262 0.025-0.512v0l-1.349-8.014c-0.04-0.237-0.124-0.375-0.253-0.415-0.122-0.04-0.295-0.042-0.519-0.004v0l-0.692 0.116c-0.152 0.026-0.254 0.08-0.308 0.164-0.054 0.084-0.061 0.244-0.02 0.481v0c0.264 1.73 0.299 3.103 0.104 4.118-0.2 1.023-0.706 1.799-1.518 2.329-0.805 0.529-1.998 0.926-3.58 1.192v0l-7.471 1.259c-0.349 0.059-0.578 0.05-0.685-0.027-0.102-0.084-0.182-0.295-0.238-0.631v0l-1.628-9.664c-0.054-0.323-0.054-0.54 0.002-0.651 0.048-0.117 0.23-0.201 0.547-0.255v0l2.372-0.399c0.955-0.161 1.763-0.131 2.423 0.09 0.66 0.221 1.193 0.585 1.597 1.093 0.403 0.501 0.694 1.103 0.873 1.804v0c0.072 0.266 0.159 0.424 0.262 0.474 0.11 0.049 0.218 0.065 0.323 0.047v0l0.593-0.1c0.264-0.044 0.417-0.118 0.461-0.22 0.043-0.109 0.04-0.305-0.007-0.588v0l-1.453-8.627c-0.034-0.204-0.098-0.339-0.19-0.405-0.098-0.058-0.249-0.07-0.454-0.035v0l-0.592 0.1c-0.178 0.03-0.29 0.086-0.338 0.168-0.048 0.076-0.065 0.238-0.05 0.486v0c0.092 1.069-0.139 1.988-0.694 2.759-0.561 0.772-1.56 1.279-2.996 1.521v0l-2.451 0.413c-0.283 0.048-0.466 0.011-0.547-0.111-0.081-0.122-0.144-0.314-0.188-0.578v0l-1.472-8.736c-0.058-0.343-0.045-0.568 0.039-0.677 0.09-0.11 0.296-0.192 0.619-0.247v0l7.826-1.318c1.344-0.226 2.428-0.226 3.252 0.001 0.824 0.227 1.478 0.733 1.963 1.519 0.485 0.786 0.867 1.907 1.146 3.364v0c0.051 0.222 0.112 0.384 0.184 0.487 0.079 0.109 0.251 0.141 0.514 0.097v0l0.712-0.12c0.316-0.053 0.469-0.13 0.459-0.23-0.002-0.094-0.028-0.287-0.077-0.576v0l-1.155-6.858c-0.071-0.422-0.169-0.663-0.294-0.723-0.125-0.06-0.399-0.055-0.821 0.016v0l-21.592 3.636c-0.264 0.044-0.424 0.119-0.481 0.224-0.057 0.104-0.063 0.292-0.017 0.561v0l0.092 0.544c0.047 0.277 0.112 0.465 0.197 0.566 0.085 0.101 0.279 0.126 0.582 0.075z" fill="#ffffff" data-fill-palette-color="secondary"></path><path d="M202.372 260.804v0c0.796 1.307 1.873 2.043 3.234 2.208 1.36 0.165 2.728-0.171 4.102-1.008v0c1.101-0.671 1.891-1.339 2.369-2.006 0.472-0.663 0.769-1.274 0.891-1.832 0.116-0.555 0.187-0.997 0.213-1.327v0c0.025-0.281 0.065-0.439 0.122-0.473 0.057-0.035 0.16 0.032 0.309 0.199v0c0.189 0.221 0.457 0.469 0.804 0.742 0.341 0.277 0.784 0.434 1.33 0.469 0.54 0.039 1.198-0.178 1.974-0.65v0l0.017-0.01c0.428-0.261 0.798-0.584 1.111-0.97 0.309-0.392 0.547-0.842 0.715-1.35 0.164-0.514 0.224-1.071 0.18-1.67v0c-0.027-0.211-0.134-0.317-0.324-0.32v0l-0.765-0.003c-0.199-0.019-0.297 0.091-0.291 0.33v0c-0.008 0.591-0.1 1.023-0.279 1.296-0.169 0.275-0.362 0.478-0.579 0.61v0c-0.223 0.136-0.457 0.181-0.703 0.135-0.25-0.051-0.469-0.231-0.657-0.538v0l-5.701-9.364c-0.514-0.845-1.13-1.561-1.848-2.149-0.727-0.59-1.609-0.89-2.648-0.898-1.032-0.013-2.276 0.424-3.731 1.309v0c-0.787 0.479-1.513 1.054-2.176 1.725-0.667 0.664-1.212 1.375-1.635 2.133-0.422 0.758-0.668 1.517-0.736 2.278-0.065 0.767 0.108 1.487 0.518 2.161v0c0.417 0.685 0.891 1.045 1.421 1.082 0.533 0.027 1.036-0.103 1.51-0.392v0c0.531-0.323 0.848-0.747 0.951-1.271 0.097-0.521-0.015-1.047-0.339-1.577v0c-0.247-0.405-0.488-0.641-0.725-0.708-0.242-0.064-0.462-0.098-0.66-0.103-0.2 0.005-0.358-0.087-0.473-0.275v0c-0.125-0.205-0.082-0.501 0.128-0.888 0.205-0.383 0.527-0.786 0.965-1.209 0.438-0.423 0.937-0.805 1.497-1.146v0c0.833-0.507 1.567-0.735 2.2-0.683 0.63 0.046 1.197 0.296 1.7 0.749 0.493 0.451 0.952 1.024 1.375 1.72v0l1.043 1.712c0.111 0.183 0.158 0.311 0.14 0.384-0.027 0.071-0.126 0.159-0.298 0.263v0l-1.532 0.933c-1.78 1.084-3.112 2.243-3.995 3.477-0.883 1.234-1.374 2.452-1.472 3.653-0.095 1.192 0.154 2.276 0.748 3.252zM205.261 258.4v0c-0.486-0.799-0.749-1.577-0.788-2.336-0.034-0.762 0.214-1.511 0.743-2.248 0.531-0.746 1.396-1.484 2.594-2.213v0l1.618-0.985c0.211-0.129 0.379-0.09 0.505 0.115v0l1.141 1.875c0.858 1.409 1.168 2.734 0.93 3.974-0.244 1.244-0.894 2.187-1.95 2.83v0c-0.776 0.473-1.612 0.68-2.507 0.623-0.892-0.051-1.654-0.597-2.286-1.635z" fill="#ffffff" data-fill-palette-color="secondary"></path><path d="M238.621 218.609v0c0.177 0.07 0.314 0.115 0.41 0.134 0.092 0.025 0.22-0.06 0.383-0.254v0l0.657-0.783c0.133-0.159 0.2-0.286 0.201-0.381 0.006-0.091-0.065-0.198-0.213-0.322v0l-4.286-3.593c-0.261-0.219-0.493-0.208-0.694 0.033v0l-0.528 0.63c-0.15 0.179-0.231 0.312-0.242 0.398-0.006 0.091 0.035 0.213 0.124 0.366v0l0.804 1.288c0.191 0.282 0.253 0.426 0.187 0.432-0.067-0.004-0.237 0.007-0.509 0.03v0c-0.692 0.056-1.463 0.273-2.312 0.652-0.853 0.383-1.662 1.031-2.425 1.942v0c-0.661 0.788-1.107 1.648-1.338 2.579-0.232 0.921-0.206 1.832 0.077 2.732 0.283 0.9 0.862 1.717 1.737 2.45v0c0.978 0.82 1.93 1.265 2.857 1.335 0.93 0.065 1.827-0.099 2.688-0.492 0.867-0.389 1.704-0.873 2.511-1.452 0.813-0.574 1.593-1.105 2.342-1.593 0.749-0.488 1.471-0.798 2.166-0.931 0.695-0.132 1.365 0.072 2.01 0.613v0c0.707 0.592 1.049 1.328 1.027 2.207-0.022 0.879-0.443 1.808-1.263 2.786v0c-0.648 0.773-1.331 1.338-2.049 1.696-0.717 0.367-1.487 0.541-2.308 0.523-0.823-0.027-1.711-0.236-2.666-0.626v0c-0.147-0.053-0.275-0.082-0.385-0.087-0.115-0.009-0.236 0.063-0.365 0.217v0l-0.714 0.852c-0.133 0.159-0.19 0.289-0.172 0.392 0.019 0.103 0.11 0.223 0.274 0.36v0l4.3 3.605c0.143 0.12 0.26 0.179 0.35 0.176 0.095 0.001 0.2-0.067 0.316-0.206v0l0.541-0.645c0.124-0.148 0.191-0.285 0.199-0.409 0.007-0.133-0.025-0.261-0.098-0.382v0l-0.736-1.166c-0.134-0.225-0.164-0.377-0.089-0.455 0.074-0.078 0.239-0.135 0.497-0.171v0c0.729-0.121 1.541-0.404 2.436-0.848 0.894-0.453 1.719-1.131 2.475-2.032v0c0.755-0.901 1.269-1.878 1.541-2.931 0.268-1.048 0.246-2.082-0.066-3.102-0.313-1.021-0.953-1.936-1.921-2.748v0c-0.922-0.773-1.83-1.176-2.724-1.211-0.899-0.03-1.778 0.161-2.639 0.573-0.86 0.412-1.703 0.909-2.529 1.489-0.836 0.581-1.64 1.119-2.412 1.614-0.773 0.485-1.519 0.788-2.239 0.908-0.72 0.12-1.405-0.092-2.055-0.637v0c-0.589-0.494-0.893-1.093-0.912-1.798-0.019-0.705 0.28-1.426 0.898-2.163v0c0.785-0.937 1.801-1.572 3.048-1.904 1.242-0.327 2.52-0.224 3.833 0.31z" fill="#ffffff" data-fill-palette-color="secondary"></path><path d="M256.445 196.345v0c1.591 0.608 3.174 0.865 4.747 0.772 1.573-0.093 2.99-0.574 4.252-1.444 1.262-0.87 2.221-2.163 2.876-3.878v0c0.551-1.442 0.768-2.76 0.653-3.956-0.113-1.202-0.485-2.288-1.116-3.258-0.637-0.973-1.475-1.84-2.514-2.602v0c-0.113-0.079-0.206-0.107-0.278-0.085-0.075 0.028-0.145 0.127-0.21 0.296v0l-0.375 0.983c-0.064 0.169-0.069 0.292-0.013 0.37 0.058 0.072 0.141 0.154 0.249 0.246v0c1.074 0.932 1.818 1.989 2.233 3.17 0.423 1.177 0.376 2.443-0.141 3.797v0c-0.446 1.167-1.13 1.986-2.054 2.455-0.932 0.474-2 0.667-3.203 0.579-1.2-0.079-2.424-0.357-3.672-0.834v0c-0.193-0.074-0.307-0.171-0.34-0.291-0.031-0.126-0.011-0.28 0.058-0.461v0l4.18-10.943c0.091-0.237 0.126-0.406 0.108-0.506-0.017-0.106-0.14-0.204-0.372-0.292v0c-0.805-0.308-1.646-0.539-2.523-0.696-0.886-0.152-1.767-0.196-2.643-0.13-0.879 0.072-1.72 0.28-2.523 0.624-0.806 0.35-1.532 0.874-2.177 1.572-0.652 0.695-1.19 1.598-1.614 2.709v0c-0.698 1.829-0.86 3.505-0.483 5.028 0.368 1.528 1.155 2.865 2.361 4.013 1.207 1.147 2.718 2.068 4.534 2.762zM259.069 183.97l-2.939 7.695c-0.079 0.206-0.157 0.326-0.235 0.361-0.078 0.035-0.204 0.019-0.378-0.048v0c-0.892-0.341-1.716-0.852-2.472-1.534-0.757-0.675-1.297-1.472-1.619-2.388-0.328-0.919-0.293-1.9 0.105-2.942v0c0.265-0.693 0.692-1.212 1.282-1.56 0.584-0.349 1.248-0.571 1.992-0.665 0.748-0.086 1.49-0.082 2.226 0.013 0.734 0.101 1.384 0.261 1.952 0.478v0c0.112 0.043 0.175 0.095 0.187 0.157 0.018 0.064-0.015 0.209-0.101 0.433z" fill="#ffffff" data-fill-palette-color="secondary"></path></g></svg></g></svg></g></svg></g></svg></g><defs></defs></svg><rect width="280" height="280" fill="none" stroke="none" visibility="hidden"></rect></g></svg></g></svg>